<?xml version="1.0" encoding="utf-8"?>
<!-- Generator: Adobe Illustrator 24.1.1, SVG Export Plug-In . SVG Version: 6.00 Build 0)  -->
<svg version="1.1" id="Layer_1" xmlns="http://www.w3.org/2000/svg" xmlns:xlink="http://www.w3.org/1999/xlink" x="0px" y="0px"
	 viewBox="0 0 566.93 597.38" style="enable-background:new 0 0 566.93 597.38;" xml:space="preserve">
<style type="text/css">
	.st0{fill:url(#SVGID_1_);}
	.st1{fill:url(#SVGID_3_);}
	.st2{fill:none;stroke:url(#SVGID_4_);stroke-width:7.3079;stroke-linecap:round;stroke-linejoin:round;}
	
		.st3{fill:none;stroke:url(#SVGID_5_);stroke-width:7.3079;stroke-linecap:round;stroke-linejoin:round;stroke-dasharray:0,34.5719;}
	.st4{fill:none;stroke:url(#SVGID_6_);stroke-width:7.3079;stroke-linecap:round;stroke-linejoin:round;}
	
		.st5{fill:none;stroke:url(#SVGID_7_);stroke-width:7.3079;stroke-linecap:round;stroke-linejoin:round;stroke-dasharray:0,34.5116;}
	.st6{fill:none;stroke:url(#SVGID_8_);stroke-width:7.3079;stroke-linecap:round;stroke-linejoin:round;}
	.st7{fill:none;stroke:url(#SVGID_9_);stroke-width:7.3079;stroke-linecap:round;stroke-linejoin:round;stroke-dasharray:0,34.565;}
	.st8{fill:url(#SVGID_10_);}
	.st9{fill:url(#SVGID_11_);}
	.st10{opacity:0.5;clip-path:url(#SVGID_12_);fill:url(#SVGID_13_);}
	.st11{fill:url(#SVGID_14_);}
	.st12{fill:url(#SVGID_15_);}
	.st13{fill:url(#SVGID_16_);}
	.st14{fill:url(#SVGID_17_);}
	.st15{fill:url(#SVGID_18_);}
	.st16{fill:url(#SVGID_19_);}
	.st17{fill:#301810;}
	.st18{fill:url(#SVGID_20_);}
	.st19{fill-rule:evenodd;clip-rule:evenodd;fill:url(#SVGID_21_);}
	.st20{fill-rule:evenodd;clip-rule:evenodd;fill:url(#SVGID_22_);}
	.st21{fill:#5E3B31;}
	.st22{fill-rule:evenodd;clip-rule:evenodd;fill:url(#SVGID_23_);}
	.st23{fill:#211E1F;}
	.st24{fill:url(#SVGID_24_);}
	.st25{fill:url(#SVGID_25_);}
	.st26{fill:url(#SVGID_26_);}
	.st27{fill:url(#SVGID_27_);}
	.st28{fill:#FFFFFF;}
	.st29{fill:url(#SVGID_28_);}
	.st30{fill:url(#SVGID_29_);}
	.st31{fill:url(#SVGID_30_);}
	.st32{fill:url(#SVGID_31_);}
</style>
<g>
	<g>
		<linearGradient id="SVGID_1_" gradientUnits="userSpaceOnUse" x1="283.4639" y1="0" x2="283.4639" y2="613.8491">
			<stop  offset="0" style="stop-color:#EBBE6B"/>
			<stop  offset="0.1626" style="stop-color:#EBB876"/>
			<stop  offset="0.4834" style="stop-color:#FCF3DD"/>
			<stop  offset="0.4835" style="stop-color:#EAE0CB"/>
			<stop  offset="0.4838" style="stop-color:#C5B7A4"/>
			<stop  offset="0.4842" style="stop-color:#A29180"/>
			<stop  offset="0.4846" style="stop-color:#847162"/>
			<stop  offset="0.485" style="stop-color:#6B5548"/>
			<stop  offset="0.4854" style="stop-color:#573F33"/>
			<stop  offset="0.486" style="stop-color:#482E23"/>
			<stop  offset="0.4866" style="stop-color:#3D2318"/>
			<stop  offset="0.4875" style="stop-color:#371C12"/>
			<stop  offset="0.4901" style="stop-color:#351A10"/>
			<stop  offset="0.5042" style="stop-color:#391D11"/>
			<stop  offset="0.5188" style="stop-color:#462814"/>
			<stop  offset="0.5337" style="stop-color:#5A3819"/>
			<stop  offset="0.5476" style="stop-color:#754E1F"/>
			<stop  offset="0.5858" style="stop-color:#351A10"/>
			<stop  offset="0.6476" style="stop-color:#6A4019"/>
			<stop  offset="0.7864" style="stop-color:#EB9F2E"/>
			<stop  offset="1" style="stop-color:#FBBF56"/>
		</linearGradient>
		<path class="st0" d="M283.46,0C117.04,0,12.54,116.8,12.54,116.8c0,310.44,270.93,470.27,270.93,470.27
			S554.39,427.24,554.39,116.8C554.39,116.8,449.89,0,283.46,0z"/>
		<linearGradient id="SVGID_3_" gradientUnits="userSpaceOnUse" x1="-20.815" y1="145.3437" x2="452.6188" y2="350.2218">
			<stop  offset="0" style="stop-color:#DBAE56"/>
			<stop  offset="0.4029" style="stop-color:#F5F2BB"/>
			<stop  offset="0.6626" style="stop-color:#E9B75B"/>
			<stop  offset="0.7983" style="stop-color:#EB9F2E"/>
			<stop  offset="1" style="stop-color:#854C20"/>
		</linearGradient>
		<path class="st1" d="M283.45,572.88c-17.98-11.7-72.77-49.88-126.89-112.98c-59.61-69.51-130.55-184.37-132-338.3
			c18.18-18.43,115.43-109.58,258.9-109.58c143.45,0,240.69,91.13,258.9,109.58C539.84,392.98,322.88,547.11,283.45,572.88z"/>
		<g>
			<g>
				<linearGradient id="SVGID_4_" gradientUnits="userSpaceOnUse" x1="26.5078" y1="116.11" x2="285.2823" y2="564.3206">
					<stop  offset="0" style="stop-color:#EBBE6B"/>
					<stop  offset="0.1626" style="stop-color:#EBB876"/>
					<stop  offset="0.4834" style="stop-color:#FCF3DD"/>
					<stop  offset="0.4835" style="stop-color:#EAE0CB"/>
					<stop  offset="0.4838" style="stop-color:#C5B7A4"/>
					<stop  offset="0.4842" style="stop-color:#A29180"/>
					<stop  offset="0.4846" style="stop-color:#847162"/>
					<stop  offset="0.485" style="stop-color:#6B5548"/>
					<stop  offset="0.4854" style="stop-color:#573F33"/>
					<stop  offset="0.486" style="stop-color:#482E23"/>
					<stop  offset="0.4866" style="stop-color:#3D2318"/>
					<stop  offset="0.4875" style="stop-color:#371C12"/>
					<stop  offset="0.4901" style="stop-color:#351A10"/>
					<stop  offset="0.5042" style="stop-color:#391D11"/>
					<stop  offset="0.5188" style="stop-color:#462814"/>
					<stop  offset="0.5337" style="stop-color:#5A3819"/>
					<stop  offset="0.5476" style="stop-color:#754E1F"/>
					<stop  offset="0.5858" style="stop-color:#351A10"/>
					<stop  offset="0.6476" style="stop-color:#6A4019"/>
					<stop  offset="0.7864" style="stop-color:#EB9F2E"/>
					<stop  offset="1" style="stop-color:#FBBF56"/>
				</linearGradient>
				<line class="st2" x1="283.46" y1="561.16" x2="283.46" y2="561.16"/>
				<linearGradient id="SVGID_5_" gradientUnits="userSpaceOnUse" x1="-2.8146" y1="133.0393" x2="255.96" y2="581.2499">
					<stop  offset="0" style="stop-color:#EBBE6B"/>
					<stop  offset="0.1626" style="stop-color:#EBB876"/>
					<stop  offset="0.4834" style="stop-color:#FCF3DD"/>
					<stop  offset="0.4835" style="stop-color:#EAE0CB"/>
					<stop  offset="0.4838" style="stop-color:#C5B7A4"/>
					<stop  offset="0.4842" style="stop-color:#A29180"/>
					<stop  offset="0.4846" style="stop-color:#847162"/>
					<stop  offset="0.485" style="stop-color:#6B5548"/>
					<stop  offset="0.4854" style="stop-color:#573F33"/>
					<stop  offset="0.486" style="stop-color:#482E23"/>
					<stop  offset="0.4866" style="stop-color:#3D2318"/>
					<stop  offset="0.4875" style="stop-color:#371C12"/>
					<stop  offset="0.4901" style="stop-color:#351A10"/>
					<stop  offset="0.5042" style="stop-color:#391D11"/>
					<stop  offset="0.5188" style="stop-color:#462814"/>
					<stop  offset="0.5337" style="stop-color:#5A3819"/>
					<stop  offset="0.5476" style="stop-color:#754E1F"/>
					<stop  offset="0.5858" style="stop-color:#351A10"/>
					<stop  offset="0.6476" style="stop-color:#6A4019"/>
					<stop  offset="0.7864" style="stop-color:#EB9F2E"/>
					<stop  offset="1" style="stop-color:#FBBF56"/>
				</linearGradient>
				<path class="st3" d="M255.28,541.14c-24.47-18.66-59.08-48.22-93.41-88.25C107,388.92,42.12,284.84,35.86,146.01"/>
				<linearGradient id="SVGID_6_" gradientUnits="userSpaceOnUse" x1="27.7033" y1="115.4198" x2="286.4778" y2="563.6304">
					<stop  offset="0" style="stop-color:#EBBE6B"/>
					<stop  offset="0.1626" style="stop-color:#EBB876"/>
					<stop  offset="0.4834" style="stop-color:#FCF3DD"/>
					<stop  offset="0.4835" style="stop-color:#EAE0CB"/>
					<stop  offset="0.4838" style="stop-color:#C5B7A4"/>
					<stop  offset="0.4842" style="stop-color:#A29180"/>
					<stop  offset="0.4846" style="stop-color:#847162"/>
					<stop  offset="0.485" style="stop-color:#6B5548"/>
					<stop  offset="0.4854" style="stop-color:#573F33"/>
					<stop  offset="0.486" style="stop-color:#482E23"/>
					<stop  offset="0.4866" style="stop-color:#3D2318"/>
					<stop  offset="0.4875" style="stop-color:#371C12"/>
					<stop  offset="0.4901" style="stop-color:#351A10"/>
					<stop  offset="0.5042" style="stop-color:#391D11"/>
					<stop  offset="0.5188" style="stop-color:#462814"/>
					<stop  offset="0.5337" style="stop-color:#5A3819"/>
					<stop  offset="0.5476" style="stop-color:#754E1F"/>
					<stop  offset="0.5858" style="stop-color:#351A10"/>
					<stop  offset="0.6476" style="stop-color:#6A4019"/>
					<stop  offset="0.7864" style="stop-color:#EB9F2E"/>
					<stop  offset="1" style="stop-color:#FBBF56"/>
				</linearGradient>
				<line class="st4" x1="35.39" y1="128.73" x2="35.39" y2="128.73"/>
				<linearGradient id="SVGID_7_" gradientUnits="userSpaceOnUse" x1="226.2431" y1="0.7928" x2="485.0176" y2="449.0034">
					<stop  offset="0" style="stop-color:#EBBE6B"/>
					<stop  offset="0.1626" style="stop-color:#EBB876"/>
					<stop  offset="0.4834" style="stop-color:#FCF3DD"/>
					<stop  offset="0.4835" style="stop-color:#EAE0CB"/>
					<stop  offset="0.4838" style="stop-color:#C5B7A4"/>
					<stop  offset="0.4842" style="stop-color:#A29180"/>
					<stop  offset="0.4846" style="stop-color:#847162"/>
					<stop  offset="0.485" style="stop-color:#6B5548"/>
					<stop  offset="0.4854" style="stop-color:#573F33"/>
					<stop  offset="0.486" style="stop-color:#482E23"/>
					<stop  offset="0.4866" style="stop-color:#3D2318"/>
					<stop  offset="0.4875" style="stop-color:#371C12"/>
					<stop  offset="0.4901" style="stop-color:#351A10"/>
					<stop  offset="0.5042" style="stop-color:#391D11"/>
					<stop  offset="0.5188" style="stop-color:#462814"/>
					<stop  offset="0.5337" style="stop-color:#5A3819"/>
					<stop  offset="0.5476" style="stop-color:#754E1F"/>
					<stop  offset="0.5858" style="stop-color:#351A10"/>
					<stop  offset="0.6476" style="stop-color:#6A4019"/>
					<stop  offset="0.7864" style="stop-color:#EB9F2E"/>
					<stop  offset="1" style="stop-color:#FBBF56"/>
				</linearGradient>
				<path class="st5" d="M61.1,105.73c39.67-31.99,118.33-82.01,222.37-82.01c117.21,0,202.22,63.49,235.54,93.15"/>
				<linearGradient id="SVGID_8_" gradientUnits="userSpaceOnUse" x1="399.8196" y1="-99.4217" x2="658.5942" y2="348.7889">
					<stop  offset="0" style="stop-color:#EBBE6B"/>
					<stop  offset="0.1626" style="stop-color:#EBB876"/>
					<stop  offset="0.4834" style="stop-color:#FCF3DD"/>
					<stop  offset="0.4835" style="stop-color:#EAE0CB"/>
					<stop  offset="0.4838" style="stop-color:#C5B7A4"/>
					<stop  offset="0.4842" style="stop-color:#A29180"/>
					<stop  offset="0.4846" style="stop-color:#847162"/>
					<stop  offset="0.485" style="stop-color:#6B5548"/>
					<stop  offset="0.4854" style="stop-color:#573F33"/>
					<stop  offset="0.486" style="stop-color:#482E23"/>
					<stop  offset="0.4866" style="stop-color:#3D2318"/>
					<stop  offset="0.4875" style="stop-color:#371C12"/>
					<stop  offset="0.4901" style="stop-color:#351A10"/>
					<stop  offset="0.5042" style="stop-color:#391D11"/>
					<stop  offset="0.5188" style="stop-color:#462814"/>
					<stop  offset="0.5337" style="stop-color:#5A3819"/>
					<stop  offset="0.5476" style="stop-color:#754E1F"/>
					<stop  offset="0.5858" style="stop-color:#351A10"/>
					<stop  offset="0.6476" style="stop-color:#6A4019"/>
					<stop  offset="0.7864" style="stop-color:#EB9F2E"/>
					<stop  offset="1" style="stop-color:#FBBF56"/>
				</linearGradient>
				<line class="st6" x1="531.54" y1="128.73" x2="531.54" y2="128.73"/>
				<linearGradient id="SVGID_9_" gradientUnits="userSpaceOnUse" x1="212.5674" y1="8.6885" x2="471.3419" y2="456.8991">
					<stop  offset="0" style="stop-color:#EBBE6B"/>
					<stop  offset="0.1626" style="stop-color:#EBB876"/>
					<stop  offset="0.4834" style="stop-color:#FCF3DD"/>
					<stop  offset="0.4835" style="stop-color:#EAE0CB"/>
					<stop  offset="0.4838" style="stop-color:#C5B7A4"/>
					<stop  offset="0.4842" style="stop-color:#A29180"/>
					<stop  offset="0.4846" style="stop-color:#847162"/>
					<stop  offset="0.485" style="stop-color:#6B5548"/>
					<stop  offset="0.4854" style="stop-color:#573F33"/>
					<stop  offset="0.486" style="stop-color:#482E23"/>
					<stop  offset="0.4866" style="stop-color:#3D2318"/>
					<stop  offset="0.4875" style="stop-color:#371C12"/>
					<stop  offset="0.4901" style="stop-color:#351A10"/>
					<stop  offset="0.5042" style="stop-color:#391D11"/>
					<stop  offset="0.5188" style="stop-color:#462814"/>
					<stop  offset="0.5337" style="stop-color:#5A3819"/>
					<stop  offset="0.5476" style="stop-color:#754E1F"/>
					<stop  offset="0.5858" style="stop-color:#351A10"/>
					<stop  offset="0.6476" style="stop-color:#6A4019"/>
					<stop  offset="0.7864" style="stop-color:#EB9F2E"/>
					<stop  offset="1" style="stop-color:#FBBF56"/>
				</linearGradient>
				<path class="st7" d="M529.99,163.25C512.54,379.14,354.39,510.8,297.7,551.38"/>
			</g>
		</g>
		<linearGradient id="SVGID_10_" gradientUnits="userSpaceOnUse" x1="587.323" y1="290.9478" x2="-94.6666" y2="290.9478">
			<stop  offset="0" style="stop-color:#0481B8"/>
			<stop  offset="1" style="stop-color:#005C8E"/>
		</linearGradient>
		<path class="st8" d="M283.45,544.77c-20.93-14.42-66.52-48.65-111.19-100.73C117.49,380.18,52.07,274.87,48.98,134.1
			c24.3-23.33,110.82-96.97,234.48-96.97c123.65,0,210.18,73.65,234.48,96.97C512.85,369.35,336.05,508.53,283.45,544.77z"/>
		<radialGradient id="SVGID_11_" cx="284.2951" cy="277.2964" r="237.1978" gradientUnits="userSpaceOnUse">
			<stop  offset="0.2219" style="stop-color:#0481B8"/>
			<stop  offset="0.6044" style="stop-color:#025A83"/>
			<stop  offset="0.8834" style="stop-color:#014161"/>
		</radialGradient>
		<path class="st9" d="M283.45,536.57c-23.31-16.42-64.92-48.92-106.08-96.91c-53.43-62.3-117.67-165.24-121.58-302.74
			c25.99-24.38,109.78-93.06,227.67-93.06c117.86,0,201.68,68.69,227.68,93.06C504.86,361.31,340.28,496.53,283.45,536.57z"/>
		<g>
			<defs>
				<path id="SVGID_2_" d="M283.45,536.57c-23.31-16.42-64.92-48.92-106.08-96.91c-53.43-62.3-117.67-165.24-121.58-302.74
					c25.99-24.38,109.78-93.06,227.67-93.06c117.86,0,201.68,68.69,227.68,93.06C504.86,361.31,340.28,496.53,283.45,536.57z"/>
			</defs>
			<clipPath id="SVGID_12_">
				<use xlink:href="#SVGID_2_"  style="overflow:visible;"/>
			</clipPath>
			<radialGradient id="SVGID_13_" cx="279.3039" cy="300.5466" r="270.7212" gradientUnits="userSpaceOnUse">
				<stop  offset="0.0204" style="stop-color:#39393A"/>
				<stop  offset="0.2637" style="stop-color:#343435"/>
				<stop  offset="0.5377" style="stop-color:#272728"/>
				<stop  offset="0.8256" style="stop-color:#111111"/>
				<stop  offset="1" style="stop-color:#000000"/>
			</radialGradient>
			<path class="st10" d="M115.83,518.69c3.26,3.08,6.75,5.75,10.34,8.24l158.08-203.95L96.95,498.08
				C102.52,505.07,108.69,511.95,115.83,518.69z M61.22,264.02c-0.13,4.77-0.36,9.5-0.57,14.24l223.6,44.71L61.16,239.77
				C61.37,247.64,61.44,255.67,61.22,264.02z M70.44,451.67l213.8-128.69l-223.9,89.99C62.42,426.14,65.67,439.05,70.44,451.67z
				 M194.31,552.45c6.51,1.59,13.23,3.26,20,5.09l69.93-234.55L175.82,547.76C181.89,549.38,188.05,550.91,194.31,552.45z
				 M56.92,362.53l227.33-39.54l-226.13,2.84C57.47,338.19,56.97,350.44,56.92,362.53z M502.81,410.83l-218.56-87.85l209.18,125.91
				C497.89,436.46,500.89,423.76,502.81,410.83z M368.51,552.44c7.99-1.95,15.85-3.9,23.49-6.05l-107.76-223.4l69.52,233.17
				C358.75,554.86,363.69,553.62,368.51,552.44z M446.99,518.69c8.16-7.7,15.23-15.57,21.36-23.59L284.25,322.98L440.28,524.3
				C442.58,522.53,444.85,520.72,446.99,518.69z M281.41,589.09c7.21-6.02,14.93-10.9,22.91-15.08l-20.08-251.03l-20.32,254.05
				C269.97,580.54,275.86,584.44,281.41,589.09z M454.05,45.37c-9.01,0-17.9-0.39-26.67-1L284.25,322.98L489.61,43.81
				C478.46,44.75,466.6,45.37,454.05,45.37z M501.6,264.03c-0.21-7.59-0.19-14.93-0.04-22.11l-217.32,81.07l217.98-43.59
				C501.99,274.28,501.75,269.17,501.6,264.03z M530.95,103.7l-246.7,219.29l223.28-142.16C512.95,150.26,521.46,124.6,530.95,103.7
				z M504.7,325.75l-220.45-2.77l221.64,38.55C505.81,349.74,505.33,337.81,504.7,325.75z M108.77,45.37
				c-10.3,0-20.15-0.41-29.53-1.08l205.01,278.69L140.86,43.87C130.34,44.76,119.65,45.37,108.77,45.37z M54.56,176.74
				l229.68,146.24L27.66,94.91C38.35,116.44,48.28,143.58,54.56,176.74z M316.72,14.76l-32.47,308.22l78.58-289.99
				C345.49,27.77,329.99,21.34,316.72,14.76z M205.23,31.4l79.01,291.58L251.48,12.01C238.35,18.85,222.83,25.73,205.23,31.4z"/>
		</g>
		<g>
			<linearGradient id="SVGID_14_" gradientUnits="userSpaceOnUse" x1="265.6794" y1="47.6987" x2="298.1942" y2="96.471">
				<stop  offset="0" style="stop-color:#DBAE56"/>
				<stop  offset="0.4029" style="stop-color:#F5F2BB"/>
				<stop  offset="0.6626" style="stop-color:#E9B75B"/>
				<stop  offset="0.7983" style="stop-color:#EB9F2E"/>
				<stop  offset="1" style="stop-color:#854C20"/>
			</linearGradient>
			<polygon class="st11" points="283.46,52.38 288.73,67.64 304.87,67.93 291.98,77.65 296.69,93.09 283.46,83.84 270.24,93.09 
				274.95,77.65 262.06,67.93 278.2,67.64 			"/>
			<linearGradient id="SVGID_15_" gradientUnits="userSpaceOnUse" x1="207.1592" y1="60.3906" x2="235.6095" y2="105.7757">
				<stop  offset="0" style="stop-color:#DBAE56"/>
				<stop  offset="0.4029" style="stop-color:#F5F2BB"/>
				<stop  offset="0.6626" style="stop-color:#E9B75B"/>
				<stop  offset="0.7983" style="stop-color:#EB9F2E"/>
				<stop  offset="1" style="stop-color:#854C20"/>
			</linearGradient>
			<polygon class="st12" points="222.51,68.71 226.45,80.13 238.54,80.35 228.89,87.63 232.42,99.18 222.51,92.26 212.61,99.18 
				216.14,87.63 206.49,80.35 218.57,80.13 			"/>
			<linearGradient id="SVGID_16_" gradientUnits="userSpaceOnUse" x1="332.5229" y1="67.1598" x2="360.2957" y2="109.1576">
				<stop  offset="0" style="stop-color:#DBAE56"/>
				<stop  offset="0.4029" style="stop-color:#F5F2BB"/>
				<stop  offset="0.6626" style="stop-color:#E9B75B"/>
				<stop  offset="0.7983" style="stop-color:#EB9F2E"/>
				<stop  offset="1" style="stop-color:#854C20"/>
			</linearGradient>
			<polygon class="st13" points="344.41,68.71 348.35,80.13 360.43,80.35 350.79,87.63 354.31,99.18 344.41,92.26 334.51,99.18 
				338.04,87.63 328.39,80.35 340.47,80.13 			"/>
		</g>
		<g>
			<linearGradient id="SVGID_17_" gradientUnits="userSpaceOnUse" x1="88.3081" y1="170.1688" x2="107.6263" y2="200.986">
				<stop  offset="0" style="stop-color:#DBAE56"/>
				<stop  offset="0.4029" style="stop-color:#F5F2BB"/>
				<stop  offset="0.6626" style="stop-color:#E9B75B"/>
				<stop  offset="0.7983" style="stop-color:#EB9F2E"/>
				<stop  offset="1" style="stop-color:#854C20"/>
			</linearGradient>
			<polygon class="st14" points="98.73,175.82 101.41,183.57 109.61,183.72 103.06,188.66 105.46,196.51 98.73,191.81 92.01,196.51 
				94.41,188.66 87.86,183.72 96.06,183.57 			"/>
			<linearGradient id="SVGID_18_" gradientUnits="userSpaceOnUse" x1="457.7677" y1="170.1689" x2="477.086" y2="200.986">
				<stop  offset="0" style="stop-color:#DBAE56"/>
				<stop  offset="0.4029" style="stop-color:#F5F2BB"/>
				<stop  offset="0.6626" style="stop-color:#E9B75B"/>
				<stop  offset="0.7983" style="stop-color:#EB9F2E"/>
				<stop  offset="1" style="stop-color:#854C20"/>
			</linearGradient>
			<polygon class="st15" points="468.19,175.82 470.87,183.57 479.07,183.72 472.52,188.66 474.92,196.51 468.19,191.81 
				461.47,196.51 463.87,188.66 457.32,183.72 465.52,183.57 			"/>
		</g>
		<g>
			<linearGradient id="SVGID_19_" gradientUnits="userSpaceOnUse" x1="109.2166" y1="288.5338" x2="442.4707" y2="288.5338">
				<stop  offset="0" style="stop-color:#DBAE56"/>
				<stop  offset="0.4029" style="stop-color:#F5F2BB"/>
				<stop  offset="0.6626" style="stop-color:#E9B75B"/>
				<stop  offset="0.7983" style="stop-color:#EB9F2E"/>
				<stop  offset="1" style="stop-color:#854C20"/>
			</linearGradient>
			<path class="st16" d="M175.11,248.89l-12.9,30.2l-32.12-9.34c0,0,32.12,46.94,37.34,63.69c0,0,33.48,63.86,104.31,67.89
				c0,0,70.13,6.38,113.38-72.83c0,0,36.6-96.53-63.32-144.85c0,0-27.45-13.91-65.88-5.13c0,0-19.4,9.15-49.05,11.35
				c0,0,13.55,13.18,17.94,14.28c0,0-15.38,8.08-16.84,11.18c0,0,21.44,3.56,24.27,7.35l70.9,72.35l-71.01,4.29l-48.5-14.28
				C183.62,285.04,179.96,252.64,175.11,248.89"/>
			<path class="st17" d="M269.98,373.14c-41.53,0-77.26-31.86-81.48-74.35c-2.18-21.92,4.24-43.37,18.08-60.39
				c13.84-17.02,33.44-27.59,55.18-29.75c21.76-2.18,43.05,4.34,59.97,18.31c16.92,13.97,27.43,33.74,29.61,55.65
				c2.18,21.91-4.24,43.36-18.08,60.38c-13.83,17.03-33.43,27.6-55.18,29.76C275.36,373.01,272.66,373.14,269.98,373.14
				 M269.94,209.36c-2.67,0-5.37,0.13-8.07,0.4c-21.44,2.13-31.49,20.35-45.14,37.14c-13.65,16.8-29.26,30.16-27.12,51.78
				c4.44,44.62,44.08,77.36,88.35,72.94c21.44-2.14,40.77-12.55,54.42-29.35c13.65-16.79,19.98-37.94,17.83-59.55
				c-2.14-21.62-12.52-41.12-29.21-54.9C306.43,215.78,288.54,209.36,269.94,209.36"/>
			<path class="st17" d="M275.01,402.83c-2.12,0-3.32-0.09-3.41-0.1c-70.75-4.04-105.08-67.99-105.42-68.64
				c-5.19-16.58-36.93-63.07-37.25-63.55l-2.2-3.22l34.68,10.08l13.13-30.72l1.43,1.11c4.82,3.73,8.1,29.03,8.93,36.17l47.38,13.94
				l67.7-4.08l-68.76-70.16c-1.83-2.45-14.82-5.52-23.5-6.95l-1.82-0.3l0.79-1.67c1.3-2.73,10.04-7.8,15.03-10.52
				c-5.6-3.44-14.65-12.18-15.84-13.34l-2.22-2.16l3.09-0.23c29.05-2.15,48.36-11.13,48.55-11.21c38.77-8.9,66.83,5,67.12,5.14
				c99.9,48.3,64.37,145.62,63.99,146.6C348.6,398.3,289.71,402.83,275.01,402.83 M133.41,272.18
				c7.38,10.95,30.86,46.45,35.34,60.85c0.24,0.39,33.87,62.96,103.05,66.91c0.75,0.05,69.8,5.32,112.08-72.11
				c0.28-0.78,34.87-95.74-62.71-142.92c-0.29-0.15-27.52-13.58-64.96-5.02c0.07,0-18.32,8.55-46.15,11.12
				c5.24,4.9,12.52,11.15,15.06,11.79l3.56,0.89l-3.24,1.7c-5.62,2.95-11.88,6.71-14.73,9c6.31,1.16,20.07,4.02,22.63,7.46
				l72.92,74.4l-74.31,4.47l-49.62-14.6l-0.11-0.92c-1.22-10.78-3.98-27.82-6.79-33.52L163,280.77L133.41,272.18z"/>
			<path class="st17" d="M342.91,254.52c0,0,12.18,25.72,8.05,47.12c0,0,18.96-12.39,21.59-21.21c0,0,3.76-18.25-15.58-31.37
				c0,0-2.07,4.34-0.94,5.28c0,0,15.02,15.02,12.2,22.9c0,0-2.25,7.7-12.76,14.46c0,0-1.47-33.71-9.47-39.1
				C346,252.6,344.07,252.46,342.91,254.52"/>
			<linearGradient id="SVGID_20_" gradientUnits="userSpaceOnUse" x1="109.2166" y1="267.5661" x2="442.4707" y2="267.5661">
				<stop  offset="0" style="stop-color:#DBAE56"/>
				<stop  offset="0.4029" style="stop-color:#F5F2BB"/>
				<stop  offset="0.6626" style="stop-color:#E9B75B"/>
				<stop  offset="0.7983" style="stop-color:#EB9F2E"/>
				<stop  offset="1" style="stop-color:#854C20"/>
			</linearGradient>
			<path class="st18" d="M371.61,219.23c0,0,24.59,15.02,26.66,15.21c2.06,0.19,3,5.07,2.24,6.38c0,0-1.49,8.53,3.38,11.68
				c0,0,5.45,3.12,2.26,9.43c-3.19,6.3-5.26,8.11-3.56,19.32c0,0,3.75,11.58,1.31,16.65c0,0-9.13,14.27-14.51,18.02l2.27-14.26
				c0,0,7.18-1.13,7.93-9.58c0,0-3.76-19.74,0-26.95c0,0,4.13-7.21,0-10.97c0,0-4.69-6.95-4.32-12.39
				c0.37-5.44-15.97-11.48-18.02-12.26C377.25,229.5,366.74,222.61,371.61,219.23"/>
			<path class="st17" d="M245.13,182.56c0,0,2.66,5.18,8.72,3.77c6.06-1.41,3.57-8.14,3.57-8.14L245.13,182.56z"/>
			<linearGradient id="SVGID_21_" gradientUnits="userSpaceOnUse" x1="109.2166" y1="173.7168" x2="442.4707" y2="173.7168">
				<stop  offset="0" style="stop-color:#DBAE56"/>
				<stop  offset="0.4029" style="stop-color:#F5F2BB"/>
				<stop  offset="0.6626" style="stop-color:#E9B75B"/>
				<stop  offset="0.7983" style="stop-color:#EB9F2E"/>
				<stop  offset="1" style="stop-color:#854C20"/>
			</linearGradient>
			<path class="st19" d="M417.28,213.8c-0.92-0.68-1.85-1.34-2.79-2.01c-20.05-14.24-41.16-25.04-62.83-32.39
				c-0.41-0.14-0.83-0.28-1.25-0.42v-1.57v-42.21v-1.57c0.42,0.14,0.83,0.28,1.25,0.42c21.73,7.37,42.91,18.21,63,32.51
				c0.93,0.66,1.86,1.33,2.79,2.01c-0.65,0.41-1.31,0.83-1.97,1.25c-4.92,3.17-9.92,6.55-14.96,10.14
				c4.99,9.71,9.92,19.61,14.79,29.72C415.98,211.06,416.63,212.43,417.28,213.8"/>
			<linearGradient id="SVGID_22_" gradientUnits="userSpaceOnUse" x1="109.2166" y1="173.6023" x2="442.4707" y2="173.6023">
				<stop  offset="0" style="stop-color:#DBAE56"/>
				<stop  offset="0.4029" style="stop-color:#F5F2BB"/>
				<stop  offset="0.6626" style="stop-color:#E9B75B"/>
				<stop  offset="0.7983" style="stop-color:#EB9F2E"/>
				<stop  offset="1" style="stop-color:#854C20"/>
			</linearGradient>
			<path class="st20" d="M212.59,178.75c-0.42,0.14-0.84,0.28-1.25,0.42c-21.91,7.35-43.27,18.23-63.54,32.63
				c-0.93,0.66-1.86,1.33-2.79,2.01c0.65-1.37,1.31-2.74,1.97-4.11c4.87-10.11,9.81-20.01,14.78-29.72
				c-5.04-3.58-10.03-6.96-14.96-10.14c-0.66-0.42-1.31-0.84-1.97-1.26c0.93-0.68,1.86-1.35,2.79-2.01
				c20.32-14.46,41.74-25.38,63.72-32.76c0.42-0.14,0.84-0.28,1.25-0.41v1.57v42.21V178.75z"/>
			<path class="st21" d="M189.63,167.59c7.57-3.43,15.23-6.42,22.95-8.97V178C204.86,174.09,197.21,170.62,189.63,167.59"/>
			<path class="st21" d="M373.36,167.01c-7.56-3.45-15.22-6.46-22.94-9.03v19.38C358.14,173.47,365.79,170.02,373.36,167.01"/>
			<linearGradient id="SVGID_23_" gradientUnits="userSpaceOnUse" x1="109.2166" y1="133.7805" x2="442.4707" y2="133.7805">
				<stop  offset="0" style="stop-color:#DBAE56"/>
				<stop  offset="0.4029" style="stop-color:#F5F2BB"/>
				<stop  offset="0.6626" style="stop-color:#E9B75B"/>
				<stop  offset="0.7983" style="stop-color:#EB9F2E"/>
				<stop  offset="1" style="stop-color:#854C20"/>
			</linearGradient>
			<path class="st22" d="M374.13,166.81c-0.41-0.19-0.82-0.38-1.22-0.56c-59.06-26.75-123.69-26.86-182.81-0.32
				c-0.41,0.19-0.82,0.36-1.23,0.55v-1.57V122.7v-1.57c0.41-0.18,0.82-0.37,1.23-0.56c59.12-26.54,123.74-26.43,182.81,0.31
				c0.41,0.18,0.82,0.38,1.22,0.56v1.57v42.21V166.81z"/>
			<path class="st17" d="M372.9,122.47v42.2c-59.07-26.75-123.69-26.85-182.81-0.31v-42.21C249.21,95.61,313.83,95.72,372.9,122.47
				 M375.35,120.45c-0.81-0.38-1.63-0.76-2.45-1.13c-59.07-26.75-123.69-26.85-182.81-0.31c-0.82,0.37-1.63,0.74-2.45,1.12v3.14
				v42.21v3.14c0.81-0.38,1.63-0.75,2.45-1.12c59.12-26.54,123.74-26.43,182.81,0.31c0.82,0.37,1.64,0.75,2.45,1.13v-3.14v-42.21
				V120.45z"/>
			<path class="st17" d="M188.72,295.24c0-1.08,0.04-2.16,0.01-3.25c-0.07-2.82,0-5.64,0.22-8.45c0.25-3.2,0.67-6.38,1.3-9.52
				c0.24-1.21,0.52-2.41,0.78-3.7c1.33,1.3,2.85,1.47,4.45,1.06c1.55-0.4,2.75-1.28,3.51-2.76c0.42-0.82,0.96-1.59,1.49-2.36
				c3.55-5.2,6.8-10.57,9.76-16.11c2.32-4.33,4.52-8.72,6.81-13.06c1-1.9,0.44-4.64-0.96-6.04c-0.43-0.44-1.02-0.71-1.6-1.1
				c0.72-0.65,1.45-1.35,2.2-2.01c3.41-2.99,7.04-5.68,10.9-8.05c5.53-3.4,11.39-6.11,17.59-8.07c3.29-1.05,6.63-1.89,10.03-2.5
				c1.43-0.26,2.87-0.42,4.3-0.63c0.73-0.1,1.46-0.24,2.2-0.31c0.61-0.07,1.25-0.06,1.98-0.09c-0.13,0.28-0.22,0.46-0.31,0.64
				c-0.93,1.86-0.57,4.3,0.91,5.7c0.41,0.38,0.94,0.71,1.46,0.87c2.79,0.83,5.58,1.63,8.39,2.38c5.67,1.5,11.41,2.7,17.18,3.76
				c3.23,0.59,6.48,1.16,9.72,1.71c1.72,0.29,3.39,0.05,4.95-0.73c0.93-0.46,1.71-1.11,2.08-2.13c0.26-0.74,0.28-1.5,0.01-2.25
				c-0.04-0.1-0.02-0.21-0.05-0.43c8.23,4.48,15.4,10.18,21.62,17.06c6.47,7.15,11.52,15.21,15.17,24.19
				c-0.65-0.21-1.21-0.46-1.79-0.55c-0.44-0.07-0.93,0-1.36,0.15c-1.14,0.4-1.93,1.21-2.47,2.29c-0.57,1.15-0.83,2.38-0.86,3.65
				c-0.03,1.01,0,2.03,0.08,3.04c0.3,3.8,0.63,7.6,0.96,11.4c0.21,2.51,0.36,5.03,0.66,7.54c0.36,2.93,0.82,5.86,1.3,8.78
				c0.29,1.8,0.67,3.6,1.04,5.39c0.44,2.12,2.44,3.82,4.59,3.97c0.88,0.07,1.6-0.26,2.24-0.83c0.26-0.23,0.49-0.51,0.87-0.9
				c-1.53,10.05-4.71,19.37-9.59,28.1c-4.88,8.76-11.17,16.35-18.96,22.94c-0.01-0.65,0.03-1.13-0.04-1.6
				c-0.12-0.95-0.22-1.91-0.5-2.82c-0.77-2.44-2.66-3.11-4.86-2.56c-2.63,0.66-5.21,1.5-7.75,2.46c-4.18,1.59-8.22,3.49-12.27,5.39
				c-4.18,1.94-8.38,3.82-12.55,5.77c-1.89,0.87-3.54,2.1-4.72,3.85c-0.72,1.09-1.08,2.27-0.65,3.58c0.19,0.6,0.53,1.1,1.02,1.47
				c0.84,0.61,1.71,1.18,2.57,1.75c0.15,0.1,0.32,0.19,0.45,0.35c-9.2,1.52-18.37,1.36-27.49-0.41
				c-12.28-2.36-23.51-7.74-31.28-13.49c0.75,0.04,1.59,0.18,2.4,0.1c0.66-0.07,1.35-0.33,1.91-0.68c1.29-0.79,1.69-2.03,1.49-3.48
				c-0.24-1.73-0.92-3.27-1.97-4.64c-0.71-0.94-1.47-1.85-2.23-2.74c-2.42-2.84-4.83-5.69-7.3-8.48
				c-3.91-4.41-7.89-8.77-12.18-12.82c-0.79-0.76-1.57-1.53-2.41-2.24c-1.34-1.14-2.92-1.62-4.67-1.37
				c-0.92,0.13-1.62,0.66-2.11,1.43c-0.19,0.3-0.34,0.62-0.58,1.06c-0.21-0.46-0.41-0.85-0.58-1.23c-1.85-4.43-3.36-8.97-4.4-13.66
				c-0.39-1.79-0.69-3.6-1.05-5.4c-0.14-0.71-0.32-1.42-0.49-2.13C189.12,299.4,188.92,297.32,188.72,295.24 M289.5,268.49
				c0.32-0.03,0.67-0.03,0.98-0.1c0.93-0.2,1.9-0.36,2.66-1.01c3.38-2.89,6.77-5.76,10.11-8.69c2.54-2.23,4.89-4.65,6.96-7.33
				c0.46-0.58,0.61-1.18,0.6-1.89c-0.02-1.6-0.51-3.08-1.18-4.5c-1.17-2.5-2.53-4.9-3.38-7.57c-0.7-2.21-1.75-4.31-2.72-6.43
				c-0.8-1.75-1.82-3.38-3.17-4.78c-0.83-0.86-1.73-1.56-2.93-1.88c-2.09-0.57-4.14-1.27-6.24-1.82c-4.14-1.08-8.34-1.88-12.55-2.63
				c-2.83-0.5-5.66-1.02-8.5-1.55c-1.04-0.2-1.96-0.05-2.91,0.5c-3.01,1.71-5.57,3.97-8.11,6.28c-2.41,2.2-4.78,4.44-7.18,6.65
				c-1.11,1.02-2.25,2.01-3.03,3.33c-0.99,1.68-1.42,3.44-0.6,5.32c0.53,1.2,1.08,2.4,1.62,3.59c1.74,3.85,3.54,7.66,4.97,11.64
				c0.65,1.82,1.55,3.51,2.85,4.96c1.48,1.65,3.26,2.68,5.49,3.05c4.62,0.76,9.2,1.75,13.73,2.93c2.47,0.64,4.92,1.36,7.45,1.72
				C286.12,268.5,287.8,268.68,289.5,268.49 M230.9,238.24c0,0,0-0.01,0-0.02c-3.06,0.3-6.13,0.5-9.17,0.94
				c-3.26,0.46-5.66,2.23-7.04,5.29c-0.16,0.37-0.35,0.74-0.56,1.09c-2.58,4.24-5.21,8.45-7.75,12.72
				c-1.95,3.28-3.52,6.76-4.69,10.4c-0.12,0.35-0.15,0.67-0.06,1.04c0.83,3.08,1.87,6.09,3.19,8.98c1.98,4.34,4.1,8.61,6.13,12.92
				c0.38,0.82,0.97,1.37,1.73,1.78c1.01,0.55,2.1,0.87,3.24,0.81c1.64-0.1,3.27-0.31,4.9-0.49c0.98-0.12,1.95-0.38,2.93-0.4
				c2.74-0.07,5.48-0.2,8.21-0.52c2.31-0.28,4.58-0.79,6.75-1.67c1.25-0.52,2.36-1.16,2.94-2.46c0.07-0.15,0.18-0.28,0.26-0.42
				c2.64-4.21,5.34-8.38,7.9-12.62c2.49-4.12,4.57-8.44,6.23-12.97c0.18-0.49,0.24-0.92,0.05-1.43c-0.9-2.35-1.69-4.75-2.67-7.07
				c-1.66-3.94-3.46-7.82-5.16-11.74c-0.6-1.38-1.38-2.63-2.49-3.63c-1.47-1.33-3.15-2.08-5.2-1.52c-0.24,0.06-0.49,0.08-0.73,0.1
				C236.86,237.66,233.88,237.95,230.9,238.24 M224.72,294.19L224.72,294.19c-2.76,0.28-5.52,0.55-8.27,0.83
				c-0.27,0.04-0.54,0.06-0.81,0.14c-2.59,0.71-4.57,2.97-4.79,5.66c-0.13,1.49-0.47,2.92-0.84,4.35c-0.7,2.84-1.5,5.66-2.15,8.52
				c-0.67,2.92-1.02,5.87-0.73,8.89c0.1,1.06,0.46,1.94,1.05,2.8c1.52,2.23,3.3,4.23,5.13,6.21c1.88,2.02,3.75,4.08,5.61,6.12
				c2.05,2.25,4.04,4.55,6.15,6.75c1.27,1.33,2.76,2.42,4.48,3.15c0.37,0.15,0.79,0.26,1.18,0.25c1.69-0.05,3.39-0.11,5.08-0.22
				c1.64-0.11,3.29-0.24,4.92-0.43c3.79-0.44,7.57-0.91,11.36-1.35c1.01-0.11,1.91-0.46,2.73-1.04c1.83-1.32,2.66-3.21,3.03-5.37
				c0.07-0.4,0.11-0.82,0.2-1.21c0.44-1.82,0.89-3.62,1.34-5.43c1.06-4.35,2.03-8.7,2.37-13.17c0.05-0.56,0.05-1.1-0.2-1.61
				c-0.45-0.91-0.82-1.87-1.33-2.72c-1.18-1.94-2.79-3.51-4.34-5.14c-1.5-1.6-3.05-3.16-4.44-4.85c-2.25-2.77-4.51-5.52-7.08-8
				c-1.66-1.62-3.48-3.02-5.59-4.02c-0.28-0.13-0.62-0.25-0.93-0.22c-2.33,0.14-4.65,0.31-6.97,0.51
				C228.81,293.76,226.76,293.99,224.72,294.19 M292.81,286.71c0.31,2.18,0.67,4.89,1.1,7.6c0.37,2.33,0.84,4.63,1.24,6.95
				c0.16,0.95,0.58,1.73,1.2,2.45c1.06,1.26,2.26,2.34,3.66,3.17c1.92,1.12,3.87,2.17,5.84,3.2c1.8,0.95,3.56,1.94,5.21,3.14
				c1.69,1.23,3.48,2.31,5.51,2.9c1.25,0.35,2.51,0.53,3.81,0.17c1.04-0.3,1.85-0.92,2.65-1.61c3.54-3.09,7.08-6.16,10.62-9.23
				c1.66-1.44,3.21-3,4.53-4.76c1.12-1.5,1.87-3.16,1.81-5.09c-0.01-0.51-0.16-1.02-0.2-1.54c-0.11-1.86-0.14-3.72-0.31-5.58
				c-0.3-3.21-0.31-6.45-0.87-9.66c-0.41-2.32-0.63-4.67-1.07-6.99c-0.36-1.93-0.89-3.83-1.38-5.74c-0.06-0.25-0.22-0.51-0.41-0.67
				c-0.54-0.46-1.09-0.92-1.69-1.3c-2.27-1.45-4.51-2.93-6.82-4.3c-3.47-2.05-6.98-4.03-10.5-6c-1.16-0.65-2.43-0.99-3.77-1.05
				c-0.56-0.02-1.1,0.06-1.57,0.38c-1.01,0.7-2.05,1.37-3,2.15c-1.46,1.2-2.8,2.55-4.3,3.72c-2.68,2.1-5.25,4.31-7.63,6.76
				c-1.48,1.51-2.82,3.14-3.93,4.95c-0.15,0.25-0.31,0.55-0.31,0.82c-0.01,2.43-0.04,4.87,0.06,7.3
				C292.38,281.29,292.61,283.73,292.81,286.71 M317.9,321.84c-0.35-2.59-1.45-4.37-3.62-5.42c-0.24-0.11-0.47-0.27-0.7-0.42
				c-2.53-1.59-5.05-3.2-7.61-4.74c-3.36-2.03-6.85-3.83-10.38-5.54c-1.02-0.48-2.05-0.54-3.1-0.1c-1.12,0.47-2.23,0.91-3.35,1.37
				c-4.44,1.8-8.9,3.58-13.32,5.43c-3.95,1.67-7.71,3.7-11.25,6.14c-0.31,0.21-0.53,0.45-0.65,0.81c-0.7,2.11-1.49,4.19-2.11,6.32
				c-1.69,5.84-2.59,11.83-3.25,17.86c-0.1,0.92,0.09,1.69,0.63,2.38c0.37,0.48,0.77,0.94,1.2,1.35c1.01,0.96,2.22,1.6,3.43,2.24
				c1.57,0.84,3.2,1.6,4.68,2.58c2.44,1.64,4.9,3.24,7.48,4.64c2.11,1.14,4.33,2.01,6.75,2.25c0.47,0.05,1,0.02,1.43-0.16
				c4.46-1.76,8.92-3.52,13.34-5.38c4.92-2.05,9.68-4.41,14.15-7.34c0.62-0.41,1-0.88,1.19-1.58c0.64-2.32,1.38-4.62,1.91-6.97
				c1.08-4.67,2.04-9.37,3.02-14.07C317.91,322.86,317.88,322.22,317.9,321.84"/>
			<path class="st23" d="M266.12,208.14c0.19-0.02,0.37-0.04,0.56-0.06l0,0.03c-0.19,0.02-0.38,0.04-0.56,0.06
				C266.12,208.16,266.12,208.15,266.12,208.14"/>
			<path class="st23" d="M268.46,208.07c0.13-0.01,0.25-0.02,0.38-0.04c0,0.01,0,0.02,0.01,0.03c-0.14,0.01-0.26,0.03-0.39,0.04
				C268.46,208.09,268.46,208.08,268.46,208.07"/>
			<linearGradient id="SVGID_24_" gradientUnits="userSpaceOnUse" x1="109.2166" y1="243.3942" x2="442.4707" y2="243.3942">
				<stop  offset="0" style="stop-color:#DBAE56"/>
				<stop  offset="0.4029" style="stop-color:#F5F2BB"/>
				<stop  offset="0.6626" style="stop-color:#E9B75B"/>
				<stop  offset="0.7983" style="stop-color:#EB9F2E"/>
				<stop  offset="1" style="stop-color:#854C20"/>
			</linearGradient>
			<path class="st24" d="M289.5,268.49c-1.69,0.19-3.38,0.01-5.07-0.23c-2.53-0.37-4.98-1.07-7.44-1.72
				c-4.54-1.18-9.12-2.17-13.74-2.93c-2.23-0.37-4.01-1.4-5.49-3.05c-1.3-1.45-2.2-3.14-2.86-4.96c-1.43-3.98-3.23-7.79-4.97-11.64
				c-0.54-1.2-1.09-2.39-1.62-3.59c-0.82-1.89-0.39-3.64,0.6-5.32c0.78-1.32,1.92-2.3,3.03-3.32c2.4-2.21,4.77-4.45,7.18-6.65
				c2.53-2.31,5.1-4.57,8.11-6.28c0.95-0.54,1.87-0.69,2.91-0.49c2.83,0.53,5.66,1.05,8.5,1.55c4.21,0.74,8.41,1.54,12.55,2.63
				c2.09,0.55,4.15,1.25,6.24,1.82c1.19,0.32,2.1,1.03,2.93,1.88c1.35,1.4,2.37,3.02,3.17,4.78c0.97,2.12,2.03,4.22,2.73,6.43
				c0.84,2.67,2.19,5.07,3.38,7.57c0.67,1.42,1.16,2.89,1.18,4.49c0.01,0.71-0.15,1.31-0.6,1.89c-2.08,2.68-4.43,5.1-6.97,7.33
				c-3.34,2.93-6.73,5.8-10.11,8.69c-0.76,0.65-1.72,0.8-2.66,1.01C290.17,268.46,289.83,268.46,289.5,268.49"/>
			<linearGradient id="SVGID_25_" gradientUnits="userSpaceOnUse" x1="109.2166" y1="265.6293" x2="442.4707" y2="265.6293">
				<stop  offset="0" style="stop-color:#DBAE56"/>
				<stop  offset="0.4029" style="stop-color:#F5F2BB"/>
				<stop  offset="0.6626" style="stop-color:#E9B75B"/>
				<stop  offset="0.7983" style="stop-color:#EB9F2E"/>
				<stop  offset="1" style="stop-color:#854C20"/>
			</linearGradient>
			<path class="st25" d="M230.91,238.24c2.97-0.29,5.95-0.59,8.93-0.89c0.24-0.02,0.5-0.04,0.73-0.1c2.05-0.56,3.72,0.2,5.2,1.52
				c1.12,1.01,1.89,2.25,2.49,3.63c1.71,3.92,3.51,7.8,5.17,11.74c0.98,2.32,1.77,4.72,2.67,7.07c0.19,0.5,0.12,0.94-0.06,1.42
				c-1.67,4.52-3.74,8.85-6.23,12.97c-2.57,4.24-5.27,8.41-7.9,12.62c-0.08,0.14-0.19,0.27-0.26,0.42c-0.59,1.3-1.69,1.94-2.94,2.46
				c-2.17,0.88-4.44,1.39-6.76,1.66c-2.72,0.32-5.46,0.46-8.2,0.52c-0.97,0.03-1.95,0.29-2.92,0.41c-1.63,0.18-3.26,0.39-4.9,0.48
				c-1.14,0.07-2.23-0.25-3.24-0.8c-0.77-0.41-1.36-0.96-1.75-1.78c-2.02-4.31-4.14-8.59-6.13-12.92c-1.32-2.89-2.36-5.9-3.18-8.97
				c-0.1-0.37-0.06-0.69,0.05-1.04c1.18-3.65,2.75-7.12,4.7-10.41c2.53-4.27,5.16-8.47,7.74-12.72c0.21-0.35,0.39-0.72,0.57-1.09
				c1.37-3.06,3.78-4.83,7.03-5.29c3.04-0.43,6.11-0.63,9.17-0.94C230.91,238.23,230.91,238.24,230.91,238.24"/>
			<linearGradient id="SVGID_26_" gradientUnits="userSpaceOnUse" x1="109.2166" y1="320.4623" x2="442.4707" y2="320.4623">
				<stop  offset="0" style="stop-color:#DBAE56"/>
				<stop  offset="0.4029" style="stop-color:#F5F2BB"/>
				<stop  offset="0.6626" style="stop-color:#E9B75B"/>
				<stop  offset="0.7983" style="stop-color:#EB9F2E"/>
				<stop  offset="1" style="stop-color:#854C20"/>
			</linearGradient>
			<path class="st26" d="M224.72,294.19c2.05-0.2,4.09-0.43,6.15-0.6c2.32-0.19,4.64-0.37,6.97-0.52c0.31-0.02,0.65,0.1,0.93,0.23
				c2.1,1,3.93,2.41,5.59,4.02c2.57,2.48,4.83,5.23,7.08,8c1.38,1.7,2.93,3.26,4.43,4.85c1.54,1.63,3.17,3.2,4.34,5.14
				c0.52,0.85,0.9,1.81,1.34,2.71c0.26,0.52,0.25,1.06,0.21,1.62c-0.34,4.47-1.31,8.83-2.37,13.17c-0.44,1.81-0.9,3.61-1.34,5.42
				c-0.1,0.4-0.14,0.81-0.2,1.22c-0.36,2.15-1.19,4.05-3.03,5.37c-0.82,0.58-1.72,0.93-2.73,1.04c-3.79,0.44-7.57,0.91-11.36,1.35
				c-1.63,0.19-3.28,0.32-4.92,0.43c-1.69,0.1-3.39,0.18-5.09,0.22c-0.39,0.01-0.81-0.1-1.18-0.25c-1.73-0.72-3.21-1.82-4.48-3.15
				c-2.11-2.19-4.1-4.49-6.15-6.74c-1.87-2.05-3.73-4.1-5.61-6.13c-1.83-1.98-3.61-3.98-5.13-6.21c-0.58-0.86-0.94-1.74-1.05-2.8
				c-0.29-3.02,0.07-5.97,0.73-8.89c0.66-2.85,1.45-5.67,2.16-8.51c0.35-1.44,0.7-2.86,0.83-4.35c0.23-2.69,2.2-4.97,4.8-5.66
				c0.26-0.07,0.54-0.11,0.81-0.14C219.2,294.75,221.96,294.47,224.72,294.19L224.72,294.19z"/>
			<linearGradient id="SVGID_27_" gradientUnits="userSpaceOnUse" x1="109.2166" y1="284.6284" x2="442.4707" y2="284.6284">
				<stop  offset="0" style="stop-color:#DBAE56"/>
				<stop  offset="0.4029" style="stop-color:#F5F2BB"/>
				<stop  offset="0.6626" style="stop-color:#E9B75B"/>
				<stop  offset="0.7983" style="stop-color:#EB9F2E"/>
				<stop  offset="1" style="stop-color:#854C20"/>
			</linearGradient>
			<path class="st27" d="M292.81,286.71c-0.21-2.98-0.43-5.4-0.53-7.85c-0.09-2.43-0.07-4.87-0.07-7.31c0-0.28,0.16-0.58,0.31-0.82
				c1.11-1.81,2.45-3.44,3.93-4.96c2.38-2.44,4.96-4.65,7.64-6.76c1.48-1.17,2.83-2.52,4.29-3.72c0.95-0.78,1.99-1.44,3.01-2.15
				c0.46-0.32,1.01-0.41,1.57-0.38c1.34,0.05,2.62,0.4,3.77,1.04c3.52,1.97,7.03,3.95,10.5,6.01c2.31,1.36,4.56,2.84,6.82,4.29
				c0.59,0.38,1.15,0.84,1.69,1.3c0.19,0.17,0.35,0.43,0.42,0.67c0.48,1.91,1.02,3.81,1.38,5.75c0.43,2.31,0.66,4.66,1.06,6.99
				c0.55,3.19,0.57,6.44,0.86,9.67c0.17,1.85,0.2,3.71,0.31,5.57c0.03,0.52,0.18,1.02,0.2,1.54c0.06,1.93-0.69,3.58-1.81,5.09
				c-1.32,1.76-2.86,3.31-4.52,4.76c-3.55,3.07-7.09,6.15-10.62,9.23c-0.79,0.69-1.61,1.31-2.65,1.6c-1.3,0.37-2.55,0.2-3.8-0.16
				c-2.04-0.59-3.83-1.67-5.51-2.9c-1.65-1.2-3.41-2.19-5.21-3.14c-1.96-1.03-3.92-2.08-5.84-3.2c-1.4-0.82-2.59-1.91-3.65-3.16
				c-0.63-0.73-1.05-1.51-1.2-2.46c-0.39-2.32-0.87-4.63-1.24-6.95C293.48,291.61,293.12,288.89,292.81,286.71"/>
			<g>
				<path class="st28" d="M246.35,166.51c-1.99,0.39-2.99,0.6-4.97,1.04c0.27,1.23,0.41,1.84,0.68,3.06
					c2.18-0.48,3.27-0.71,5.46-1.14c0.19,0.96,0.28,1.45,0.46,2.41c-3.35,0.65-5.03,1.01-8.36,1.81c-1.23-5.13-1.85-7.7-3.08-12.83
					c3.45-0.83,5.18-1.2,8.66-1.88c0.19,0.96,0.28,1.44,0.47,2.4c-2.17,0.42-3.25,0.65-5.41,1.13c0.24,1.07,0.36,1.6,0.59,2.67
					c2.01-0.45,3.02-0.66,5.04-1.05C246.07,165.08,246.16,165.56,246.35,166.51z"/>
				<path class="st28" d="M249.49,168.95l2.72,0.26c0.9-0.15,1.24-0.52,1.16-1.01c-0.08-0.48-0.41-0.67-1.61-0.84
					c-2.13-0.32-3.11-1.24-3.3-2.34c-0.3-1.74,1.04-3.38,3.54-3.79c1.16-0.19,2.26-0.09,2.92,0.1l-0.25,2.12l-2.24-0.21l-1.05,0.97
					c0.07,0.44,0.51,0.61,1.77,0.82c1.97,0.33,2.91,1.14,3.12,2.52c0.27,1.75-0.98,3.25-3.71,3.71c-1.25,0.21-2.42,0.14-3.21-0.12
					L249.49,168.95z"/>
				<path class="st28" d="M260.37,157.51c0.13,1.09,0.19,1.63,0.31,2.72c0.9-0.1,1.36-0.15,2.26-0.25l0.23,2.18
					c-0.89,0.09-1.34,0.15-2.24,0.25c0.16,1.38,0.24,2.07,0.4,3.45c0.14,1.15,0.48,1.64,1.39,1.54l0.88-0.17
					c0.11,0.89,0.16,1.34,0.27,2.23l-1.93,0.47c-0.96,0.11-1.8-0.12-2.34-0.55c-0.62-0.49-1.02-1.37-1.2-2.71
					c-0.2-1.55-0.31-2.33-0.51-3.89l-1.33,0.18l-0.3-2.17l1.34-0.18l-0.27-2.05C258.54,158.13,259.15,157.92,260.37,157.51z"/>
				<path class="st28" d="M274.28,154.79c0.21,4.41,0.31,6.62,0.51,11.03c0.05,1.07,0.14,2.2,0.21,2.85
					c-1.07,0.05-1.6,0.08-2.67,0.14l-0.23-1.4l-0.04,0c-0.55,1.11-1.67,1.73-2.91,1.83c-2.29,0.18-4.31-1.58-4.61-4.53
					c-0.33-3.2,1.61-5.28,4.05-5.46c1.25-0.1,2.25,0.25,2.75,0.88h0.04c-0.13-2.07-0.19-3.1-0.32-5.18
					C272.34,154.88,272.99,154.85,274.28,154.79z M271.57,163.33l-0.07-0.52c-0.23-0.79-0.95-1.42-1.92-1.34
					c-1.42,0.1-2.05,1.38-1.93,2.88c0.14,1.61,1.03,2.56,2.29,2.47l1.67-1.54l0.04-0.7L271.57,163.33z"/>
				<path class="st28" d="M276.81,160.7c-0.04-1.06,0.71-1.83,1.8-1.86c1.11-0.03,1.86,0.69,1.89,1.76
					c0.02,1.01-0.71,1.79-1.81,1.82C277.63,162.45,276.85,161.72,276.81,160.7z M277.03,167.02c-0.03-1.03,0.68-1.83,1.75-1.86
					c1.07-0.02,1.79,0.72,1.82,1.76c0.02,1.01-0.68,1.79-1.75,1.82C277.82,168.78,277.07,168.04,277.03,167.02z"/>
				<path class="st28" d="M290.2,158.5h-0.04c-1.05,0.43-1.57,0.64-2.61,1.09c-0.18-0.9-0.28-1.35-0.47-2.25
					c1.45-0.6,2.18-0.89,3.65-1.47c1.07,0.04,1.6,0.06,2.67,0.11c-0.25,5.09-0.38,7.63-0.62,12.71c-1.16-0.06-1.75-0.08-2.91-0.12
					C290,164.55,290.06,162.53,290.2,158.5z"/>
				<path class="st28" d="M298.1,166.87l1.31,0.11c0.92,0.01,1.89-0.15,2.63-0.55c0.9-0.48,1.55-1.24,1.89-2.18l-0.06-0.02
					c-0.65,0.52-1.53,0.77-2.72,0.66c-2.21-0.2-3.99-1.83-3.83-4.29c0.17-2.48,2.47-4.43,5.49-4.14c3.52,0.34,4.87,3.05,4.51,6
					c-0.32,2.62-1.42,4.45-2.97,5.55c-1.34,0.96-3.11,1.35-5.09,1.3l-1.35-0.11C297.99,168.26,298.03,167.8,298.1,166.87z
					 M300.47,160.66c-0.08,1.08,0.44,2.08,1.71,2.2l1.79-0.67l0.24-0.73c0.15-1.34-0.25-2.73-1.7-2.86
					C301.44,158.5,300.58,159.34,300.47,160.66z"/>
				<path class="st28" d="M318.2,161.22c-2.08-0.37-3.12-0.54-5.21-0.85l-0.57,1.89l0.86,0.09c1.28,0.19,2.52,0.7,3.35,1.47
					c0.86,0.81,1.31,1.96,1.05,3.42c-0.43,2.33-2.83,4.01-6.26,3.5c-1.56-0.23-2.8-0.75-3.46-1.22l0.82-2.14
					c0.55,0.35,1.67,0.86,2.84,1.03c1.26,0.19,2.68-0.18,2.89-1.51c0.21-1.29-0.73-2.28-3.37-2.65l-1.8-0.13
					c0.71-2.6,1.05-3.9,1.79-6.5c3,0.41,4.51,0.65,7.49,1.17C318.45,159.77,318.36,160.25,318.2,161.22z"/>
				<path class="st28" d="M329.56,163.56c-2.06-0.49-3.09-0.72-5.17-1.15l-0.68,1.86l0.86,0.14c1.26,0.27,2.48,0.85,3.26,1.67
					c0.82,0.86,1.2,2.04,0.85,3.48c-0.55,2.31-3.06,3.84-6.46,3.13c-1.54-0.32-2.76-0.92-3.39-1.42l0.95-2.09
					c0.53,0.38,1.62,0.95,2.78,1.2c1.25,0.26,2.69-0.02,2.99-1.34c0.28-1.28-0.61-2.32-3.23-2.85l-1.8-0.23
					c0.86-2.56,1.29-3.83,2.17-6.39c2.99,0.59,4.48,0.91,7.43,1.62C329.9,162.13,329.79,162.61,329.56,163.56z"/>
			</g>
			<linearGradient id="SVGID_28_" gradientUnits="userSpaceOnUse" x1="109.2166" y1="332.1489" x2="442.4707" y2="332.1489">
				<stop  offset="0" style="stop-color:#DBAE56"/>
				<stop  offset="0.4029" style="stop-color:#F5F2BB"/>
				<stop  offset="0.6626" style="stop-color:#E9B75B"/>
				<stop  offset="0.7983" style="stop-color:#EB9F2E"/>
				<stop  offset="1" style="stop-color:#854C20"/>
			</linearGradient>
			<path class="st29" d="M317.9,321.84c-0.02,0.38,0,1.02-0.12,1.63c-0.98,4.7-1.95,9.39-3.02,14.07c-0.53,2.35-1.27,4.65-1.91,6.97
				c-0.19,0.7-0.57,1.17-1.19,1.58c-4.47,2.93-9.23,5.29-14.15,7.34c-4.42,1.86-8.89,3.61-13.34,5.38c-0.43,0.18-0.97,0.2-1.43,0.16
				c-2.42-0.23-4.63-1.11-6.75-2.25c-2.58-1.4-5.04-3-7.48-4.64c-1.47-0.98-3.1-1.75-4.68-2.58c-1.22-0.64-2.43-1.28-3.43-2.24
				c-0.44-0.41-0.84-0.86-1.2-1.35c-0.53-0.69-0.72-1.46-0.63-2.38c0.67-6.03,1.56-12.02,3.25-17.86c0.62-2.13,1.41-4.21,2.11-6.32
				c0.12-0.35,0.34-0.59,0.65-0.81c3.53-2.44,7.3-4.47,11.25-6.14c4.41-1.86,8.88-3.63,13.32-5.43c1.12-0.46,2.24-0.9,3.35-1.37
				c1.05-0.44,2.08-0.38,3.1,0.1c3.53,1.72,7.02,3.52,10.38,5.54c2.56,1.54,5.07,3.16,7.61,4.74c0.23,0.15,0.46,0.31,0.7,0.42
				C316.45,317.47,317.56,319.25,317.9,321.84"/>
		</g>
		<g>
			<g>
				<linearGradient id="SVGID_29_" gradientUnits="userSpaceOnUse" x1="0.0323" y1="492.2043" x2="145.3046" y2="555.0707">
					<stop  offset="0" style="stop-color:#DBAE56"/>
					<stop  offset="0.4029" style="stop-color:#F5F2BB"/>
					<stop  offset="0.6626" style="stop-color:#E9B75B"/>
					<stop  offset="0.7983" style="stop-color:#EB9F2E"/>
					<stop  offset="1" style="stop-color:#854C20"/>
				</linearGradient>
				<path class="st30" d="M156.77,552.34c-38.81,10.23-76.66,25.25-112.67,45.04c4.93-20.12,11.21-40.31,18.85-60.4
					C42.91,529.2,21.89,522.54,0,517.17c42.65-23.45,87.48-41.23,133.43-53.34C141.21,493.33,148.99,522.83,156.77,552.34z"/>
				
					<linearGradient id="SVGID_30_" gradientUnits="userSpaceOnUse" x1="323.8598" y1="492.2044" x2="469.1318" y2="555.0707" gradientTransform="matrix(-1 0 0 1 890.7567 0)">
					<stop  offset="0" style="stop-color:#DBAE56"/>
					<stop  offset="0.4029" style="stop-color:#F5F2BB"/>
					<stop  offset="0.6626" style="stop-color:#E9B75B"/>
					<stop  offset="0.7983" style="stop-color:#EB9F2E"/>
					<stop  offset="1" style="stop-color:#854C20"/>
				</linearGradient>
				<path class="st31" d="M410.16,552.34c38.81,10.23,76.66,25.25,112.67,45.04c-4.93-20.12-11.21-40.31-18.85-60.4
					c20.04-7.78,41.05-14.44,62.95-19.81c-42.65-23.45-87.48-41.23-133.43-53.34C425.72,493.33,417.94,522.83,410.16,552.34z"/>
			</g>
			<linearGradient id="SVGID_31_" gradientUnits="userSpaceOnUse" x1="57.6086" y1="395.3092" x2="439.8753" y2="560.7348">
				<stop  offset="0" style="stop-color:#DBAE56"/>
				<stop  offset="0.4029" style="stop-color:#F5F2BB"/>
				<stop  offset="0.6626" style="stop-color:#E9B75B"/>
				<stop  offset="0.7983" style="stop-color:#EB9F2E"/>
				<stop  offset="1" style="stop-color:#854C20"/>
			</linearGradient>
			<path class="st32" d="M474.66,542.89c-122.88-47.97-259.51-47.97-382.39,0c-11.09-28.42-22.19-56.85-33.28-85.27
				c144.27-56.32,304.68-56.32,448.95,0C496.85,486.04,485.75,514.46,474.66,542.89z"/>
		</g>
		<g>
			<path class="st17" d="M144.24,465.18l0.31,1.31c0.89,3.78,0.3,6.46-1.98,8.27c3.38,0.48,5.24,2.98,6.15,6.86l0.7,2.99
				c1.33,5.67-0.94,9.41-6.71,10.77l-9.08,2.13L125,460.79l8.71-2.05C139.68,457.33,142.91,459.51,144.24,465.18z M132,464.68
				l2.28,9.7l2.26-0.53c2.15-0.51,3.24-1.76,2.55-4.7l-0.48-2.05c-0.62-2.62-1.78-3.56-3.83-3.08L132,464.68z M135.51,479.63
				l2.65,11.28l3.3-0.78c1.94-0.46,2.78-1.59,2.14-4.32l-0.75-3.2c-0.8-3.41-2.15-4.2-4.77-3.58L135.51,479.63z"/>
			<path class="st17" d="M168.85,489.83c-0.5-0.89-0.83-1.43-1.42-4.44l-1.14-5.82c-0.67-3.44-2.08-4.48-4.73-3.96l-2.01,0.39
				l2.94,15.07l-5.82,1.13l-7.23-37.01l8.78-1.72c6.03-1.18,9.17,1.12,10.28,6.83l0.57,2.91c0.74,3.81,0.01,6.53-2.34,8.25
				c3.15,0.65,4.64,3.26,5.4,7.12l1.11,5.71c0.35,1.8,0.66,3.11,1.51,4.37L168.85,489.83z M156.31,459.35l2.22,11.37l2.27-0.44
				c2.17-0.42,3.3-1.63,2.72-4.59l-0.71-3.65c-0.52-2.64-1.64-3.63-3.7-3.23L156.31,459.35z"/>
			<path class="st17" d="M174.82,459.6c-0.93-5.96,1.68-9.86,7.43-10.76c5.75-0.9,9.42,2.02,10.36,7.98l3.03,19.38
				c0.93,5.96-1.68,9.86-7.42,10.76c-5.75,0.9-9.42-2.02-10.36-7.98L174.82,459.6z M183.77,478.43c0.42,2.66,1.74,3.49,3.61,3.2
				c1.86-0.29,2.88-1.49,2.46-4.15l-3.15-20.12c-0.42-2.66-1.75-3.49-3.61-3.2c-1.86,0.29-2.88,1.49-2.46,4.15L183.77,478.43z"/>
			<path class="st17" d="M196.48,447.14l18.19-2.18l0.64,5.35l-6.15,0.74l3.85,32.09l-5.88,0.71l-3.85-32.09l-6.15,0.74
				L196.48,447.14z"/>
			<path class="st17" d="M229.44,481.48l-5.91,0.49l-3.09-37.58l5.91-0.49l1.33,16.11l6.71-0.55l-1.33-16.11l6.01-0.5l3.09,37.59
				l-6.01,0.49l-1.33-16.11l-6.71,0.55L229.44,481.48z"/>
			<path class="st17" d="M253.16,458.01l8.13-0.37l0.24,5.39l-8.13,0.36l0.49,11.04l10.23-0.46l0.24,5.38l-16.15,0.73l-1.69-37.69
				l16.15-0.72l0.24,5.38l-10.23,0.46L253.16,458.01z"/>
			<path class="st17" d="M282.28,479.12c-0.33-0.97-0.55-1.56-0.57-4.63l-0.05-5.93c-0.03-3.5-1.22-4.79-3.92-4.77l-2.05,0.02
				l0.12,15.36l-5.93,0.05l-0.29-37.73l8.95-0.07c6.15-0.05,8.8,2.79,8.85,8.61l0.02,2.97c0.03,3.88-1.19,6.42-3.82,7.68
				c2.98,1.22,3.96,4.07,3.99,8l0.05,5.82c0.01,1.83,0.08,3.18,0.68,4.57L282.28,479.12z M275.57,446.83l0.09,11.59l2.32-0.02
				c2.21-0.02,3.55-1,3.53-4.02l-0.03-3.72c-0.02-2.69-0.94-3.87-3.05-3.86L275.57,446.83z"/>
			<path class="st17" d="M302.35,441.26c5.76,0.16,8.63,3.7,8.45,9.73l-0.04,1.18l-5.6-0.16l0.05-1.56c0.08-2.69-0.97-3.75-2.85-3.8
				c-1.88-0.06-2.99,0.94-3.07,3.63c-0.22,7.75,11.31,9.54,11,20.31c-0.17,6.03-3.29,9.39-9.1,9.22c-5.81-0.17-8.73-3.7-8.56-9.73
				l0.07-2.32l5.6,0.16l-0.08,2.69c-0.08,2.69,1.08,3.7,2.97,3.75c1.88,0.06,3.09-0.88,3.17-3.57c0.22-7.75-11.32-9.54-11.01-20.31
				C293.53,444.46,296.59,441.09,302.35,441.26z"/>
			<path class="st17" d="M345.59,453.01l-0.11,1.34c-0.32,3.87-1.7,6.24-4.44,7.26c3.06,1.5,4.07,4.44,3.74,8.41l-0.25,3.06
				c-0.48,5.8-3.79,8.66-9.7,8.17l-9.29-0.76l3.09-37.59l8.91,0.73C343.67,444.15,346.06,447.21,345.59,453.01z M332.84,464.07
				l-0.95,11.55l3.38,0.28c1.99,0.16,3.14-0.66,3.37-3.45l0.27-3.28c0.29-3.49-0.75-4.66-3.44-4.88L332.84,464.07z M334.1,448.77
				l-0.82,9.93l2.31,0.19c2.2,0.18,3.62-0.67,3.87-3.68l0.17-2.09c0.22-2.69-0.59-3.94-2.69-4.11L334.1,448.77z"/>
			<path class="st17" d="M357.64,461.62l8.08,0.97l-0.64,5.35l-8.08-0.97l-1.32,10.96l10.16,1.22l-0.64,5.35l-16.04-1.93l4.5-37.44
				l16.04,1.93l-0.64,5.35l-10.16-1.22L357.64,461.62z"/>
			<path class="st17" d="M380.68,471.6l-2.34,3.12l-1.8,11.44l-5.85-0.92l5.86-37.26l5.86,0.92l-2.56,16.23l10.22-15.03l5.86,0.92
				l-10.76,15.33l4.9,21.93l-6.01-0.95L380.68,471.6z"/>
			<path class="st17" d="M413.23,492.82l-5.87-1.16l0.32-6.91l-7.14-1.41l-2.33,6.51l-5.34-1.05l13.22-35.84l8.51,1.68
				L413.23,492.82z M402.27,478.47l5.61,1.1l0.89-19.27L402.27,478.47z"/>
			<path class="st17" d="M426.37,457.13l5.77,1.35l-7.4,31.48l9.49,2.23l-1.23,5.24l-15.26-3.59L426.37,457.13z"/>
		</g>
		<g>
			<polygon class="st17" points="466.28,476.21 467.08,485.73 476.3,488.25 467.49,491.95 467.95,501.5 461.7,494.27 452.76,497.66 
				457.71,489.48 451.73,482.02 461.04,484.2 			"/>
			<polygon class="st17" points="100.65,476.21 99.85,485.73 90.62,488.25 99.44,491.95 98.98,501.5 105.22,494.27 114.16,497.66 
				109.21,489.48 115.2,482.02 105.89,484.2 			"/>
		</g>
		<g>
			<path class="st17" d="M244.32,116.66l0.19,1.19c0.56,3.44-0.13,5.8-2.3,7.28c3,0.64,4.5,2.99,5.08,6.52l0.44,2.72
				c0.84,5.15-1.43,8.37-6.68,9.22l-8.26,1.34l-5.43-33.41l7.92-1.29C240.74,109.35,243.49,111.5,244.32,116.66z M233.4,115.45
				l1.44,8.83l2.05-0.33c1.96-0.32,3.01-1.37,2.58-4.04l-0.3-1.86c-0.39-2.39-1.37-3.3-3.23-3L233.4,115.45z M235.61,129.05
				l1.67,10.26l3.01-0.49c1.77-0.29,2.59-1.25,2.19-3.74l-0.47-2.91c-0.5-3.1-1.66-3.9-4.05-3.51L235.61,129.05z"/>
			<path class="st17" d="M264.08,106.63c5.16-0.32,8.01,2.6,8.35,8l0.07,1.06l-5.02,0.32l-0.09-1.4c-0.15-2.41-1.17-3.27-2.86-3.16
				c-1.69,0.11-2.6,1.08-2.45,3.5c0.44,6.95,10.89,7.6,11.5,17.25c0.34,5.4-2.17,8.66-7.38,8.99s-8.11-2.59-8.44-7.99l-0.13-2.07
				l5.02-0.32l0.15,2.41c0.15,2.41,1.27,3.21,2.96,3.11c1.69-0.11,2.7-1.04,2.55-3.45c-0.44-6.95-10.89-7.6-11.5-17.25
				C256.46,110.21,258.92,106.95,264.08,106.63z"/>
			<path class="st17" d="M299.99,128.2l-0.18,4.49c-0.21,5.41-3.04,8.39-8.26,8.19c-5.21-0.2-7.8-3.4-7.58-8.81l0.69-17.58
				c0.21-5.41,3.04-8.39,8.25-8.19c5.22,0.21,7.8,3.4,7.59,8.81l-0.13,3.28l-5.02-0.2l0.14-3.62c0.1-2.42-0.93-3.38-2.62-3.44
				c-1.69-0.07-2.79,0.81-2.88,3.22l-0.72,18.26c-0.1,2.41,0.93,3.33,2.62,3.39c1.69,0.07,2.79-0.76,2.88-3.18l0.19-4.83
				L299.99,128.2z"/>
			<path class="st17" d="M329.11,118.27l-0.18,1.2c-0.51,3.44-1.88,5.49-4.39,6.24c2.66,1.52,3.39,4.21,2.87,7.75l-0.4,2.73
				c-0.76,5.17-3.89,7.54-9.16,6.77l-8.27-1.22l4.93-33.48l7.94,1.17C327.9,110.23,329.87,113.11,329.11,118.27z M317.06,127.45
				l-1.51,10.28l3.02,0.44c1.77,0.26,2.84-0.41,3.21-2.9l0.43-2.92c0.46-3.11-0.41-4.21-2.8-4.57L317.06,127.45z M319.06,113.81
				l-1.3,8.85l2.06,0.3c1.96,0.29,3.29-0.4,3.68-3.07l0.28-1.87c0.35-2.39-0.31-3.56-2.17-3.84L319.06,113.81z"/>
		</g>
	</g>
</g>
</svg>
